# xmcd
#
# Track frame offsets:
#	150
#	15934
#	29426
#	46952
#	63273
#	76340
#	95872
#	112645
#	124640
#	138014
#
# Disc length: 2034 seconds
#
# Revision: 0
# Processed by: cddbd v1.5.1PL0 Copyright (c) Steve Scherf et al.
# Submitted via: dBpowerAMP V4.0
#
DISCID=6f07f00a
DTITLE=Jeremiah - Simple Truth
DYEAR=1900
DGENRE=Gospel
TTITLE0=For The Rest of My Life
TTITLE1=Stay With The Ship
TTITLE2=While There's Still Time
TTITLE3=Read The Book
TTITLE4=Don't Give Up
TTITLE5=Walk In The Spirit
TTITLE6=Reflections of Love
TTITLE7=L.O.V.E.
TTITLE8=When I Sing For You
TTITLE9=Part of What I Am
EXTD=
EXTT0=
EXTT1=
EXTT2=
EXTT3=
EXTT4=
EXTT5=
EXTT6=
EXTT7=
EXTT8=
EXTT9=
PLAYORDER=
